<svg width="120" height="120" viewBox="100 0 200 200" version="1.1" xmlns="http://www.w3.org/2000/svg" xmlns:xlink="http://www.w3.org/1999/xlink">
  <desc>Woovi Logo - Infinity Symbol</desc>
  <g fill="#03d69d">
    <path d="M162.2,83.9c4.9,4.9,9.4,9.4,13.9,13.9c-10.2,12.5-22.9,20.2-39.8,17c-15.7-3-26-12.7-30.1-28.3c-4.3-16.5,3.3-33.6,18-42
    c14.7-8.4,33.1-6.2,45.2,5.7c13.5,13.2,26.7,26.7,40.1,40c6.9,6.8,17.1,7.6,24.5,2.1c8.3-6.2,9.8-18.2,3.4-26.3
    c-6.5-8.1-18.5-9.4-26.3-2.6c-2.7,2.3-4.9,5.2-7.2,7.8c-5-5-9.5-9.5-14-14c9.9-12.2,22.4-20.5,41-16.8c15.5,3,27,15.7,29.6,31.6
    c2.5,15.6-5.7,31.7-20,39.2c-14.6,7.6-32.3,5-44.2-6.7c-13.3-13.2-26.5-26.5-39.8-39.7c-5.7-5.7-13.7-7.4-20.7-4.2
    c-7.1,3.2-11,8.8-11.1,16.7c-0.1,7.8,3.5,13.7,10.6,17c7.2,3.3,14,2.3,20-2.9C157.9,89,160,86.3,162.2,83.9z"></path>
  </g>
</svg>